<svg width="672" height="466" viewBox="0 0 672 466" fill="none" xmlns="http://www.w3.org/2000/svg">
<path d="M71.077 112.345C71.077 112.345 112.887 203.54 122.79 203.54C132.693 203.54 260.967 138.253 268.669 127.717C276.371 117.18 229.792 39.4278 223.924 33.6147C218.056 27.8016 71.4437 105.805 71.077 112.345Z" fill="#A0A099"/>
<path d="M279.23 140.081C274.44 146.633 219.85 174.55 176.88 194.717C174.518 195.829 172.19 196.914 169.91 197.969C168.149 198.787 166.416 199.586 164.712 200.366C163.68 200.841 162.658 201.307 161.65 201.764C160.157 202.444 158.693 203.105 157.262 203.751C154.819 204.85 152.467 205.896 150.221 206.876C137.021 212.677 127.541 216.381 125.189 216.381C119.683 216.381 104.323 188.207 91.7664 163.181C91.2624 162.178 90.768 161.184 90.2736 160.199C89.544 158.73 88.824 157.28 88.1184 155.849C87.792 155.188 87.4704 154.527 87.1488 153.875C86.328 152.206 85.5312 150.57 84.7584 148.987C84.0768 147.575 83.4144 146.205 82.7712 144.879C81.5856 142.411 80.4816 140.1 79.4784 137.984C75.8016 130.242 73.4784 125.183 73.4784 125.183C73.5696 123.566 83.0832 117.56 97.4544 109.52C99.5856 108.326 101.827 107.085 104.16 105.806C105.197 105.24 106.253 104.665 107.328 104.08C108.298 103.557 109.282 103.024 110.28 102.487C111.706 101.716 113.165 100.937 114.643 100.152C116.851 98.9728 119.117 97.7745 121.421 96.5667C167.52 72.3347 230.774 42.3014 234.485 45.9771C235.694 47.1754 238.637 51.4455 242.482 57.5511C243.744 59.553 245.102 61.7498 246.528 64.1036C247.517 65.7441 248.544 67.4654 249.595 69.2438C250.867 71.3979 252.168 73.6376 253.488 75.9438C254.107 77.028 254.731 78.1264 255.355 79.2343C255.902 80.1949 256.445 81.1696 256.992 82.1444C265.829 98.0455 274.675 115.711 278.328 127.556C280.186 133.552 280.709 138.055 279.23 140.081Z" fill="#DBDABD"/>
<path d="M279.23 140.081C271.526 150.618 135.091 216.381 125.189 216.381C118.987 216.381 100.272 180.608 87.1488 153.875C89.2656 152.867 92.2608 152.701 95.52 156.433C101.76 163.576 110.4 180.694 125.28 180.218C140.16 179.743 154.08 146.248 178.56 140.646C203.04 135.045 248.256 138.416 264.288 131.027C268.45 129.106 273.341 128.041 278.328 127.556C280.186 133.552 280.709 138.055 279.23 140.081Z" fill="#A0A099"/>
<path d="M253.488 75.9437C220.368 87.9599 175.598 109.833 139.411 128.54C137.102 129.729 134.832 130.908 132.605 132.068C131.069 132.872 129.552 133.661 128.054 134.446C127.056 134.969 126.062 135.492 125.083 136.005C123.811 136.676 122.558 137.337 121.32 137.988C118.997 139.215 116.731 140.413 114.542 141.578C103.781 147.304 94.6848 152.244 88.1184 155.848C87.792 155.187 87.4704 154.527 87.1488 153.875C86.328 152.206 85.5312 150.57 84.7584 148.987C91.3392 145.378 100.344 140.485 110.938 134.845C113.131 133.675 115.392 132.477 117.715 131.25C118.915 130.618 120.134 129.971 121.368 129.324C122.347 128.806 123.341 128.288 124.339 127.765C125.822 126.985 127.325 126.2 128.851 125.406C131.083 124.241 133.354 123.062 135.658 121.873C141.878 118.649 148.344 115.344 154.954 112.016C194.261 92.2157 225.922 77.9076 249.595 69.2438C250.867 71.3978 252.168 73.6375 253.488 75.9437Z" fill="#CC737B"/>
<path d="M164.712 200.366C163.68 200.841 162.658 201.307 161.65 201.764L129.624 144.175L128.002 141.26L125.083 136.006L121.368 129.325L119.251 125.521L115.526 118.825L107.328 104.08C108.298 103.557 109.282 103.024 110.28 102.487L118.502 117.27L122.227 123.966L124.339 127.765L128.054 134.446L131.006 139.757L132.629 142.677L164.712 200.366Z" fill="#FAE7C9"/>
<path d="M246.528 64.1036C215.53 76.5334 170.126 99.1534 133.526 118.088C131.218 119.282 128.947 120.461 126.72 121.621C125.203 122.411 123.706 123.19 122.227 123.966C121.224 124.484 120.23 125.007 119.251 125.52C118.037 126.153 116.837 126.781 115.656 127.403C113.328 128.626 111.062 129.814 108.869 130.97C98.1072 136.647 89.0832 141.479 82.7712 144.878C81.5856 142.411 80.4816 140.1 79.4784 137.984C85.8144 134.565 94.7136 129.8 105.269 124.222C107.462 123.067 109.723 121.873 112.051 120.646C113.194 120.052 114.35 119.443 115.526 118.825C116.506 118.312 117.499 117.793 118.502 117.27C119.971 116.505 121.454 115.73 122.962 114.945C125.189 113.785 127.459 112.606 129.768 111.407C165.95 92.677 210.83 70.3232 242.482 57.551C243.744 59.5529 245.102 61.7498 246.528 64.1036Z" fill="#CC737B"/>
<path d="M256.992 82.1444C229.186 94.8405 182.122 118.012 144.139 136.933C141.816 138.093 139.526 139.234 137.275 140.352C135.706 141.136 134.155 141.911 132.629 142.677C131.616 143.181 130.618 143.68 129.624 144.175C128.294 144.84 126.984 145.497 125.693 146.143C123.336 147.318 121.046 148.464 118.834 149.576C107.323 155.344 97.8624 160.109 91.7664 163.181C87.1632 165.501 84.48 166.861 84.2832 166.961L82.7568 163.994C82.9536 163.894 85.6512 162.529 90.2736 160.199C96.36 157.128 105.787 152.382 117.254 146.638C119.467 145.53 121.757 144.384 124.114 143.2C125.39 142.567 126.686 141.916 128.002 141.26C128.995 140.765 129.994 140.261 131.006 139.757C132.528 138.996 134.074 138.226 135.638 137.446C137.89 136.324 140.179 135.183 142.507 134.023C180.408 115.14 227.4 92.0065 255.355 79.2343C255.902 80.1948 256.445 81.1696 256.992 82.1444Z" fill="#FAE7C9"/>
<path d="M157.262 203.751C154.819 204.85 152.467 205.896 150.221 206.875C141.667 191.826 129.797 169.99 118.834 149.576C118.301 148.592 117.778 147.613 117.254 146.638C116.342 144.936 115.435 143.247 114.542 141.578C113.318 139.296 112.114 137.052 110.938 134.845C110.237 133.538 109.546 132.244 108.869 130.97C107.63 128.654 106.43 126.4 105.269 124.222C102.355 118.754 99.7056 113.771 97.4544 109.52C99.5856 108.326 101.827 107.085 104.16 105.806C106.43 110.081 109.104 115.112 112.051 120.646C113.213 122.824 114.418 125.083 115.656 127.403C116.333 128.668 117.019 129.952 117.715 131.25C118.891 133.457 120.096 135.706 121.32 137.988C122.237 139.71 123.173 141.445 124.114 143.2C124.637 144.179 125.165 145.159 125.693 146.143C136.79 166.79 148.79 188.863 157.262 203.751Z" fill="#CC737B"/>
<path d="M176.88 194.717C174.518 195.829 172.19 196.914 169.91 197.969C161.866 183.913 149.165 161.445 137.275 140.352C136.723 139.382 136.181 138.412 135.638 137.446C134.616 135.639 133.603 133.842 132.605 132.068C131.333 129.81 130.08 127.584 128.851 125.406C128.131 124.127 127.421 122.862 126.72 121.621C125.429 119.329 124.176 117.094 122.962 114.945C119.846 109.405 117.024 104.384 114.643 100.152C116.851 98.9727 119.117 97.7744 121.421 96.5667C123.806 100.813 126.643 105.849 129.768 111.407C130.982 113.561 132.235 115.792 133.526 118.088C134.227 119.334 134.938 120.594 135.658 121.873C136.886 124.056 138.139 126.281 139.411 128.54C140.434 130.347 141.466 132.178 142.507 134.023C143.05 134.988 143.592 135.958 144.139 136.933C156.139 158.207 168.931 180.837 176.88 194.717Z" fill="#CC737B"/>
<path d="M195.36 146.871L166.182 199.735L195.36 185.958V146.871Z" fill="#0B063A"/>
<path d="M198.169 152.708C191.938 156.823 190.572 160.849 190.277 172.05C189.981 183.251 190.277 319.79 190.277 319.79C190.277 319.79 187.095 349.42 212.988 350.655C238.88 351.889 464.868 350.655 464.868 350.655C464.868 350.655 490.624 351.066 491.455 329.666C492.286 308.266 491.455 286.044 491.455 286.044C491.455 286.044 493.946 279.047 499.347 281.105C504.747 283.163 546.29 292.216 546.29 292.216C546.29 292.216 568.308 296.542 568.722 277.918C569.137 259.294 568.722 219.788 568.722 219.788C568.722 219.788 568.722 200.857 547.536 206.207C526.349 211.557 499.347 221.434 499.347 221.434C499.347 221.434 492.7 222.669 493.116 214.438C493.531 206.207 493.116 173.696 493.116 173.696C493.116 173.696 495.194 152.296 466.114 149.827C437.035 147.358 218.11 149.827 218.11 149.827L198.169 152.708Z" fill="#513235"/>
<path d="M198.169 144.624C191.938 148.74 190.572 152.766 190.277 163.966C189.981 175.167 190.277 311.706 190.277 311.706C190.277 311.706 187.095 341.336 212.988 342.571C238.88 343.805 464.868 342.571 464.868 342.571C464.868 342.571 490.624 342.982 491.455 321.582C492.286 300.182 491.455 277.96 491.455 277.96C491.455 277.96 493.946 270.964 499.347 273.021C504.747 275.079 546.29 284.132 546.29 284.132C546.29 284.132 568.308 288.458 568.722 269.834C569.137 251.211 568.722 211.704 568.722 211.704C568.722 211.704 568.722 192.773 547.536 198.123C526.349 203.473 499.347 213.35 499.347 213.35C499.347 213.35 492.7 214.585 493.116 206.354C493.531 198.123 493.116 165.612 493.116 165.612C493.116 165.612 495.194 144.212 466.114 141.743C437.035 139.274 218.11 141.743 218.11 141.743L198.169 144.624Z" fill="#623A2D"/>
<path d="M207.204 149.469C201.283 153.379 199.985 157.205 199.704 167.847C199.423 178.489 199.704 308.227 199.704 308.227C199.704 308.227 196.68 336.381 221.284 337.555C245.887 338.727 460.616 337.555 460.616 337.555C460.616 337.555 485.089 337.945 485.879 317.612C486.668 297.278 485.879 276.162 485.879 276.162C485.879 276.162 488.246 269.515 493.378 271.47C498.509 273.425 537.983 282.028 537.983 282.028C537.983 282.028 558.903 286.138 559.297 268.441C559.692 250.746 559.297 213.207 559.297 213.207C559.297 213.207 559.297 195.219 539.167 200.303C519.036 205.386 493.378 214.771 493.378 214.771C493.378 214.771 487.063 215.944 487.457 208.124C487.852 200.303 487.457 169.411 487.457 169.411C487.457 169.411 489.432 149.078 461.801 146.731C434.171 144.385 226.151 146.731 226.151 146.731L207.204 149.469Z" stroke="#FAE7C9" stroke-width="3" stroke-miterlimit="10"/>
<path d="M509.48 68.9704C517.726 57.9595 513.598 45.0955 506.97 41.2648C485.458 28.8326 456.771 78.2058 448.883 92.7687C440.995 107.332 428.087 127.934 414.103 134.327C400.119 140.72 387.57 135.037 381.901 132.551C376.232 130.064 352.073 124.026 317.652 135.748C283.23 147.47 249.527 177.306 249.885 236.625C250.244 295.944 309.405 346.026 367.849 335.015C426.294 324.004 450.676 288.839 456.771 249.412C462.867 209.984 445.656 182.634 443.505 177.662C441.353 172.689 440.277 168.426 438.485 158.836C436.693 149.246 455.337 128.644 456.054 127.578C456.771 126.513 501.233 79.9818 509.48 68.9704ZM500.873 51.9205C510.274 62.5881 474.799 87.734 473.982 82.4678C473.265 77.8505 491.472 41.2534 500.873 51.9205Z" fill="#0B063A"/>
<path d="M354.224 328.977C407.097 328.977 449.958 285.96 449.958 232.895C449.958 179.831 407.097 136.814 354.224 136.814C301.352 136.814 258.49 179.831 258.49 232.895C258.49 285.96 301.352 328.977 354.224 328.977Z" fill="#3F3F56"/>
<path d="M354.224 297.367C389.702 297.367 418.463 268.502 418.463 232.895C418.463 197.288 389.702 168.423 354.224 168.423C318.746 168.423 289.985 197.288 289.985 232.895C289.985 268.502 318.746 297.367 354.224 297.367Z" fill="#57576D"/>
<path d="M401.553 184.411C405.343 181.074 410.517 194.711 414.82 196.843C419.123 198.974 429.52 213.537 426.652 220.641C423.783 227.745 417.688 228.1 416.254 232.895C414.82 237.69 417.504 251.749 414.349 257.227C411.194 262.704 406.572 269.658 397.609 270.369C388.645 271.079 385.344 272.855 381.975 274.987C378.605 277.118 370.359 276.052 367.132 272.5C363.905 268.949 353.507 259.713 354.224 247.991C354.941 236.27 357.451 228.811 354.224 219.931C350.997 211.05 351.714 197.197 359.602 195.422C367.49 193.646 366.414 183.346 377.53 184.411C388.645 185.476 391.872 192.936 401.553 184.411Z" fill="#FAE7C9"/>
<path d="M406.805 228.987C406.805 238.815 399.758 247.009 390.394 248.882C389.079 249.148 387.711 249.286 386.314 249.286C375 249.286 365.823 240.199 365.823 228.987C365.823 217.779 375 208.687 386.314 208.687C387.711 208.687 389.079 208.825 390.394 209.091C399.758 210.965 406.805 219.163 406.805 228.987Z" fill="#B52C02"/>
<path d="M406.805 228.987C406.805 238.815 399.758 247.009 390.394 248.882C381.034 247.009 373.983 238.815 373.983 228.987C373.983 219.163 381.034 210.965 390.394 209.091C399.758 210.965 406.805 219.163 406.805 228.987Z" fill="#E66B43"/>
<path d="M336.211 398.692L334.32 401.492L310.234 437.108L308.064 440.322C308.064 440.322 271.824 415.116 262.954 408.62C254.088 402.129 251.002 397.546 249.845 390.284C248.688 383.028 238.666 372.719 238.666 372.719C238.666 372.719 141.504 312.367 130.32 304.731C119.141 297.09 103.766 284.332 107.962 279.519C115.286 271.117 143.045 290.213 143.045 290.213C143.045 290.213 239.822 360.113 245.99 362.405C252.158 364.697 263.342 365.458 272.208 365.077C281.078 364.697 289.944 371.573 289.944 371.573L336.211 398.692Z" fill="#A0A099"/>
<path d="M524.114 378.291C531.937 381.842 539.381 402.581 531.517 414.497C523.652 426.413 503.296 427.329 492.655 414.497C482.015 401.665 486.641 387.916 492.655 382.874C498.67 377.832 513.012 373.249 524.114 378.291Z" fill="#E66B43"/>
<path d="M537.531 386.998C541.563 392.102 562.975 399.83 573.154 383.791C583.332 367.75 574.542 358.583 570.84 354.458C567.14 350.334 549.559 348.042 539.845 354.458C530.129 360.875 529.204 376.457 537.531 386.998Z" fill="#E66B43"/>
<path d="M529.263 327.067C536.43 330.32 543.247 349.316 536.043 360.23C528.84 371.145 510.195 371.984 500.449 360.23C490.703 348.476 494.94 335.882 500.449 331.264C505.956 326.647 519.093 322.449 529.263 327.067Z" fill="#E66B43"/>
<path d="M571.495 304.942C578.21 307.99 584.598 325.791 577.847 336.017C571.098 346.245 553.627 347.031 544.495 336.017C535.362 325.004 539.333 313.203 544.495 308.876C549.655 304.549 561.965 300.615 571.495 304.942Z" fill="#E66B43"/>
<path d="M527.7 406.476C527.7 406.476 517.426 407.455 510.579 402.81C510.579 402.81 506.304 408.538 500.751 409.684C500.751 409.684 503.433 406.872 504.915 402.81L492.655 401.206L504.416 399.026L498.733 379.239C498.733 379.239 509.195 392.727 510.178 395.477C510.178 395.477 513.93 389.181 513.706 382.645C513.706 382.645 515.444 395.019 513.012 398.915C513.011 398.915 519.719 404.414 527.7 406.476Z" fill="#5280B2"/>
<path d="M541.001 377.145C541.001 377.145 534.524 380.353 537.531 386.999C537.531 386.999 539.149 380.876 544.47 379.24C544.47 379.24 546.812 389.762 557.193 389.749C557.193 389.749 548.866 384.479 548.866 374.854C548.866 374.854 562.975 377.833 572.922 370.501C572.922 370.501 560.096 371.997 554.828 371.937C549.559 371.875 550.484 370.501 550.484 370.501C550.484 370.501 550.947 360.189 558.58 357.668C558.58 357.668 550.484 358.643 548.634 364.572C546.783 370.501 546.783 370.501 546.783 370.501C546.783 370.501 537.002 369.06 535.572 364.987C535.572 364.987 534.986 369.584 542.851 373.709L541.001 377.145Z" fill="#5280B2"/>
<path d="M560.498 337.532C560.498 337.532 563.285 344.154 570.184 341.637C570.184 341.637 564.129 339.618 562.846 334.247C562.846 334.247 573.602 332.653 574.299 322.393C574.299 322.393 568.421 330.262 558.729 329.603C558.729 329.603 562.696 315.862 555.992 305.529C555.992 305.529 556.621 318.307 556.2 323.51C555.776 328.713 554.455 327.704 554.455 327.704C554.455 327.704 544.102 326.541 542.086 318.823C542.086 318.823 542.514 326.892 548.358 329.127C554.202 331.362 554.202 331.362 554.202 331.362C554.202 331.362 552.081 340.93 547.881 342.065C547.881 342.065 552.471 342.958 557.163 335.468L560.498 337.532Z" fill="#5280B2"/>
<path d="M507.204 346.48C507.204 346.48 504.414 340.951 498.634 343.518C498.634 343.518 503.958 344.9 505.38 349.44C505.38 349.44 496.23 351.438 496.241 360.298C496.241 360.298 500.825 353.191 509.195 353.192C509.195 353.192 506.603 365.234 512.979 373.723C512.979 373.723 511.678 362.777 511.731 358.281C511.786 353.784 512.981 354.573 512.981 354.573C512.981 354.573 521.948 354.969 524.14 361.484C524.14 361.484 523.293 354.575 518.137 352.995C512.982 351.414 512.982 351.414 512.982 351.414C512.982 351.414 514.235 343.067 517.777 341.846C517.777 341.846 513.779 341.347 510.191 348.058L507.204 346.48Z" fill="#5280B2"/>
<path d="M446.198 389.749L467.211 394.332L484.791 384.249C484.791 384.249 493.349 384.249 494.621 386.312C495.894 388.374 505.146 399.943 505.146 399.943L508.385 396.852L499.363 386.77C499.363 386.77 495.489 384.256 493.378 382.304C491.268 380.353 497.744 377.145 497.744 377.145C497.744 377.145 514.861 372.913 518.563 371.936C522.264 370.958 524.808 370.621 527.352 371.936C529.897 373.249 537.531 375.978 541.001 376.104C544.471 376.229 546.321 374.167 545.627 373.479C544.933 372.791 538.919 372.455 536.375 371.936C533.83 371.416 527.816 368.734 527.816 368.734C527.816 368.734 554.403 355.628 565.86 351.835C577.318 348.043 593.741 346.899 593.741 346.899L588.421 343.986C588.421 343.986 562.745 347.837 557.425 350.461C552.105 353.084 548.403 353.085 548.403 353.085L552.567 340.023C552.567 340.023 557.887 330.169 556.269 329.252C554.649 328.336 548.229 339.566 548.229 339.566L543.873 352.427L530.361 362.25C530.361 362.25 505.148 371.416 503.76 370.729C502.371 370.041 505.216 364.571 505.216 364.571C505.216 364.571 508.379 356.292 510.58 354.001C512.781 351.709 510.005 350.334 507.692 353.084C505.379 355.834 499.364 367.062 499.364 367.062C499.364 367.062 496.357 372.103 493.581 373.02C490.806 373.937 480.396 376.103 480.396 376.103L470.218 381.727L446.198 389.749Z" fill="#7FA2D1"/>
<path d="M446.4 389.749L467.413 394.331L446.4 399.942V389.749Z" fill="#372426"/>
<path d="M319.704 119.006C319.704 119.006 370.691 109.784 385.137 87.1135C385.137 87.1135 336.855 95.6603 319.704 119.006Z" fill="#7FA2D1"/>
<path d="M326.94 49.1826C326.94 49.1826 355.773 68.6923 382.95 67.241C382.95 67.241 375.266 55.1611 361.413 51.5582C347.56 47.9548 333.639 49.3623 333.639 49.3623L326.94 49.1826Z" fill="#7FA2D1"/>
<path d="M285.481 55.5663C285.481 55.5663 300.472 62.4032 304.989 62.8834C309.506 63.3632 342.876 74.9605 345.268 70.0541C347.66 65.1478 335.108 56.7879 329.367 56.7303C323.627 56.6733 316.083 54.7446 314.973 53.5411C313.863 52.3376 285.481 55.5663 285.481 55.5663Z" fill="#7FA2D1"/>
<path d="M274.54 55.038C274.54 55.038 287.651 74.0855 297.803 76.9257C307.955 79.7669 318.818 84.6294 323.848 82.6656C328.878 80.7012 312.652 73.6109 310.722 72.3513C308.792 71.0907 301.601 64.9604 295.557 62.7408C289.513 60.5206 274.54 55.038 274.54 55.038Z" fill="#7FA2D1"/>
<path d="M270.448 114.935C269.431 116.065 273.939 120.304 282.508 117.344C291.078 114.385 306.645 108.386 312.602 106.866C318.56 105.347 342.554 94.4122 343.022 92.0608C343.491 89.7089 327.251 86.3085 321.64 88.3309C316.029 90.3527 305.21 98.6233 302.487 99.337C299.762 100.051 271.928 113.29 270.448 114.935Z" fill="#7FA2D1"/>
<path d="M234.617 113.255C233.4 115.377 241.885 115.053 248.016 113.615C254.147 112.178 282.065 105.029 288.432 101.017C294.801 97.0042 297.885 92.765 297.885 92.765C297.885 92.765 273.051 95.6751 265.014 97.5439C256.977 99.4126 236.886 109.299 234.617 113.255Z" fill="#7FA2D1"/>
<path d="M228.072 104.408C230.122 104.381 241.566 101.788 247.687 99.6746C253.808 97.5609 263.848 92.2794 263.848 92.2794L272.92 86.1996C272.92 86.1996 252.4 85.1216 246.576 88.7217C240.752 92.3222 228.072 104.408 228.072 104.408Z" fill="#7FA2D1"/>
<path d="M251.271 62.3932C251.271 62.3932 252.246 73.6171 257.351 77.0684C262.456 80.5192 271.659 83.9143 271.659 83.9143C271.659 83.9143 262.364 64.0023 251.271 62.3932Z" fill="#7FA2D1"/>
<path d="M263.57 62.2268C263.57 62.2268 267.497 75.7489 274.01 79.0946C280.523 82.4408 288.085 85.7232 287.905 82.6115C287.725 79.4997 284.747 71.6876 283.381 71.7061C282.014 71.7247 263.57 62.2268 263.57 62.2268Z" fill="#7FA2D1"/>
<path d="M369.965 85.5219C369.965 85.5219 359.057 85.3531 352.276 92.569C352.276 92.5685 366.11 92.0345 369.965 85.5219Z" fill="#5280B2"/>
<path d="M371.349 71.5449C371.349 71.5449 365.015 69.2268 360.346 70.4498C355.677 71.6733 365.29 75.8335 371.349 71.5449Z" fill="#5280B2"/>
<path d="M324.312 109.556C324.312 109.556 338.505 104.805 344.684 97.0046C344.684 97.0042 328.919 100.106 324.312 109.556Z" fill="#5280B2"/>
<path d="M273.404 91.4725C273.404 91.4725 234.794 86.4459 225.721 92.5258C225.721 92.5258 259.352 102.819 273.404 91.4725Z" fill="#5280B2"/>
<path d="M399.254 76.9519L385.137 87.1136" stroke="#372426" stroke-width="3" stroke-miterlimit="10"/>
<path d="M382.95 67.241C382.95 67.241 393.205 69.8686 397.609 70.9305" stroke="#372426" stroke-width="3" stroke-miterlimit="10"/>
<path d="M371.349 71.5449C371.349 71.5449 391.618 71.388 394.614 71.1588C397.609 70.9296 397.609 70.9301 397.609 70.9301" stroke="#372426" stroke-width="3" stroke-miterlimit="10"/>
<path d="M345.268 70.0541C345.268 70.0541 367.245 76.794 373.21 78.8658" stroke="#372426" stroke-width="3" stroke-miterlimit="10"/>
<path d="M369.965 85.522C369.965 85.522 381.443 79.8872 385.208 79.4883" stroke="#372426" stroke-width="3" stroke-miterlimit="10"/>
<path d="M344.684 97.0041C344.684 97.0041 350.598 85.9109 358.631 84.9261" stroke="#372426" stroke-width="3" stroke-miterlimit="10"/>
<path d="M340.546 90.8757L356.499 83.9071" stroke="#372426" stroke-width="3" stroke-miterlimit="10"/>
<path d="M321.037 80.7764L339.806 83.221" stroke="#372426" stroke-width="3" stroke-miterlimit="10"/>
<path d="M295.638 93.0341L317.52 87.9913" stroke="#372426" stroke-width="3" stroke-miterlimit="10"/>
<path d="M286.377 82.2163L304.388 89.464" stroke="#372426" stroke-width="3" stroke-miterlimit="10"/>
<path d="M273.404 91.4726L287.999 89.3789" stroke="#372426" stroke-width="3" stroke-miterlimit="10"/>
<path d="M272.921 86.1996L296.282 89.8097" stroke="#372426" stroke-width="3" stroke-miterlimit="10"/>
<path d="M271.659 83.9148L299.879 88.6765" stroke="#372426" stroke-width="3" stroke-miterlimit="10"/>
<path d="M414.461 72.9062L414.406 68.8453C414.406 68.8453 409.86 66.3351 406.729 67.1896C403.598 68.0441 393.51 69.9414 393.51 69.9414L402.012 71.9922L391.825 73.3979L366.873 80.7278L342.851 83.017L318.82 84.6294C318.82 84.6294 303.143 87.549 298.095 88.1591C293.047 88.7692 287.705 87.8943 287.705 87.8943L289.186 89.9466C289.186 89.9466 305.772 89.8148 310.678 88.8006C315.583 87.7863 340.858 87.1049 340.858 87.1049L366.663 83.9413L387.034 79.0488C387.034 79.0488 399.107 79.3422 400.332 78.9195C401.555 78.4968 414.461 72.9062 414.461 72.9062Z" fill="#5280B2"/>
<path d="M319.704 119.006L383.791 89.045" stroke="#FAE7C9" stroke-width="3" stroke-miterlimit="10"/>
<path d="M270.448 114.935L310.88 99.6984L336.884 89.045" stroke="#FAE7C9" stroke-width="3" stroke-miterlimit="10"/>
<path d="M234.617 113.255L295.382 95.2286" stroke="#FAE7C9" stroke-width="3" stroke-miterlimit="10"/>
<path d="M227.863 91.4725L270.307 93.4801" stroke="#FAE7C9" stroke-width="3" stroke-miterlimit="10"/>
<path d="M251.271 62.3932L269.526 83.085" stroke="#FAE7C9" stroke-width="3" stroke-miterlimit="10"/>
<path d="M263.57 62.2268L284.602 82.5049" stroke="#FAE7C9" stroke-width="3" stroke-miterlimit="10"/>
<path d="M274.54 55.038C274.54 55.038 300.932 70.1901 303.666 72.7393C306.399 75.2885 319.704 83.0593 319.704 83.0593" stroke="#FAE7C9" stroke-width="3" stroke-miterlimit="10"/>
<path d="M289.985 55.0751L326.94 63.8763L343.031 69.0484" stroke="#FAE7C9" stroke-width="3" stroke-miterlimit="10"/>
<path d="M329.325 49.2462L363.02 58.2043L379.526 67.0117" stroke="#FAE7C9" stroke-width="3" stroke-miterlimit="10"/>
<path d="M408.742 75.4293L409.995 67.2862L421.44 67.0118V69.4246L408.742 75.4293Z" fill="#372426"/>
<path d="M284.63 246.225C286.537 241.907 291.259 234.861 290.356 230.193C289.452 225.525 289.896 215.238 293.22 211.636C296.544 208.035 306.06 198.742 307.162 195.641C308.264 192.54 306.024 187.34 314.54 183.959C323.057 180.577 343.435 174.375 345.687 171.887C347.939 169.398 362.473 162.751 364.535 163.422C366.597 164.093 380.229 179.44 380.229 179.44C380.229 179.44 360.688 189.727 358.028 192.812C355.368 195.897 346.678 206.597 344.025 209.695C341.371 212.794 331.891 233.488 329.957 238.258C328.023 243.028 315.89 248.817 312.403 253.584C308.916 258.353 296.279 260.402 296.279 260.402L284.63 246.225Z" fill="#623A2D"/>
<path d="M282.71 243.372C284.617 239.054 289.339 232.008 288.436 227.339C287.532 222.672 287.976 212.385 291.3 208.783C294.624 205.182 304.14 195.889 305.242 192.788C306.344 189.687 304.104 184.487 312.62 181.106C321.137 177.724 341.515 171.522 343.767 169.033C346.019 166.545 359.113 159.898 361.175 160.569C363.237 161.24 377.829 176.587 377.829 176.587C377.829 176.587 358.768 186.874 356.108 189.959C353.448 193.044 344.758 203.744 342.105 206.842C339.451 209.941 329.971 230.635 328.037 235.405C326.103 240.175 313.97 245.964 310.483 250.731C306.996 255.5 294.359 257.549 294.359 257.549L282.71 243.372Z" fill="#CC737B"/>
<path d="M553.472 90.6204C572.375 94.0479 575.834 111.757 576.411 126.039C576.987 140.321 564.187 158.031 540.601 156.317C517.014 154.603 502.021 134.854 511.248 109.024C520.474 83.1934 553.472 90.6204 553.472 90.6204Z" fill="#A0A099"/>
<path d="M553.97 101.17C553.97 101.17 543.461 97.7772 536.18 101.811C528.898 105.844 525.058 105.367 524.28 113.414C523.502 121.461 530.823 127.198 529.91 132.725C528.998 138.252 533.526 150.806 540.861 148.812C548.195 146.818 555.539 133.715 562.726 129.607C569.913 125.499 564.676 108.086 553.97 101.17Z" fill="#FAE7C9"/>
<path d="M588.146 151.498C601.476 153.915 603.916 166.404 604.322 176.475C604.729 186.547 595.703 199.035 579.07 197.826C562.437 196.618 551.863 182.691 558.37 164.476C564.876 146.261 588.146 151.498 588.146 151.498Z" fill="#0B063A"/>
<path d="M579.36 158.82C577.735 158.473 572.461 160.914 570.589 162.494C566.659 165.809 568.147 167.45 568.345 171.659C568.752 180.311 567.67 187.044 578.389 189.24C597.238 193.099 601.642 164.036 585.612 159.179C584.724 158.911 584.159 158.79 583.2 158.821" fill="#513235"/>
<path d="M526.56 106.514C526.56 106.514 519.36 114.821 520.32 123.031C521.28 131.241 519.36 134.569 526.56 138.373C533.76 142.177 541.92 137.687 546.72 140.645C551.52 143.604 564.96 144.288 565.92 136.813C566.88 129.339 557.493 117.587 556.427 109.435C555.36 101.284 537.12 99.3816 526.56 106.514Z" fill="#CC737B"/>
<path d="M367.493 190.838L365.904 195.583L361.92 205.719V210.032C361.92 210.032 361.25 206.798 362.013 203.131C362.775 199.465 363.693 197.093 363.693 197.093L357.184 210.032L360.243 200.436L364.82 192.564L367.493 190.838Z" fill="#0B063A"/>
<path d="M325.64 219.737C325.64 219.737 340.444 221.678 346.322 218.658C352.199 215.639 357.207 208.522 357.207 208.522L358.964 204.498C358.965 204.498 335.872 204.209 325.64 219.737Z" fill="#5280B2"/>
<path d="M361.767 206.363C361.767 206.363 350.652 217.365 361.767 236.128C361.767 236.128 364.586 213.692 361.767 206.363Z" fill="#7FA2D1"/>
<path d="M360.935 199.264C360.935 199.264 354.595 199.896 350.241 201.405C345.887 202.915 335.936 218.443 332.421 223.619C328.907 228.795 329.342 230.119 329.342 230.119C329.342 230.119 340.927 225.126 343.951 219.52C346.976 213.913 352.276 207.78 352.636 206.362C352.996 204.944 354.16 201.405 354.16 201.405L360.935 199.264Z" fill="#7FA2D1"/>
<path d="M329.341 230.12L343.031 216.381L351.748 200.939" stroke="#FAE7C9" stroke-width="3" stroke-miterlimit="10"/>
<path d="M361.767 206.363C361.767 206.363 358.188 227.596 360.935 234.657" stroke="#FAE7C9" stroke-width="3" stroke-miterlimit="10"/>
<path d="M314.682 274.295C314.682 274.295 319.817 280.751 328.02 282.936C336.222 285.12 345.143 283.241 348.274 284.16C351.404 285.08 360.079 288.076 362.778 286.171C365.478 284.264 369.455 281.749 369.455 281.749L378.779 282.997L379.15 281.756L369.513 280.95C369.513 280.95 360.634 278.851 354.914 277.479C349.193 276.107 344.579 274.977 339.43 275.489C334.282 276.002 314.682 274.295 314.682 274.295Z" fill="#7FA2D1"/>
<path d="M314.776 274.414C314.776 274.414 322.87 276.456 336.259 277.562C349.648 278.668 354.224 282.215 354.224 282.215H367.68" stroke="#FAE7C9" stroke-width="3" stroke-miterlimit="10"/>
<path d="M311.52 181.803C313.212 181.769 314.911 181.089 316.643 181.011C318.955 180.906 320.734 180.855 322.853 179.782C324.284 179.057 325.733 178.372 327.2 177.639C328.737 176.87 330.348 176.796 332.116 176.534C335.912 175.97 338.38 173.594 341.564 171.612C344.43 169.828 347.898 169.298 350.724 167.264C353.041 165.596 355.086 163.799 357.929 163.104C359.703 162.669 364.397 161.129 360.035 159.89C358.644 159.496 356.019 159.567 354.565 159.965C352.748 160.461 351.36 162.061 349.665 162.944C346.302 164.697 342.315 165.844 339.197 168.048C337.938 168.938 336.964 170.15 335.524 170.747C333.983 171.387 332.166 171.64 330.522 171.971C327.783 172.523 325.296 174.123 322.612 175.027C319.74 175.994 309.552 178.461 309.945 182.413C310.431 182.514 310.884 182.384 311.2 182.119" fill="#FAE7C9"/>
<path d="M285.44 238.389C286.624 235.262 290.113 232.994 289.245 228.879C288.895 227.221 288.235 225.541 288.152 223.815C288.061 221.901 288.792 219.796 288.457 217.963C287.288 218 287.173 222.01 287.076 223.015C286.992 223.889 286.77 224.692 286.685 225.551C286.573 226.672 287.053 227.349 287.209 228.439C287.497 230.458 286.037 231.668 285.597 233.475C285.173 235.213 285.427 236.918 284.8 238.706" fill="#FAE7C9"/>
<path d="M305.28 190.521C305.801 191.917 305.733 193.346 306.44 194.761C307.036 195.956 307.862 197.069 308.44 198.284C309.107 199.686 308.866 201.112 309.245 202.572C309.671 204.216 310.637 205.418 311.524 206.847C313.4 209.875 315.023 212.205 315.369 215.724C315.583 217.911 318.607 223.252 317.007 225.084C315.847 226.414 313.321 224.633 312.524 223.649C311.422 222.288 311.105 220.238 310.252 218.696C308.331 215.221 304.69 213.202 302.853 209.836C302.033 208.334 301.389 206.822 300.761 205.263C300.341 204.221 299.221 203.011 298.997 201.933C298.555 199.805 301.566 197.574 302.76 195.942C303.723 194.624 305.371 193.086 305.12 191.314" fill="#623A2D"/>
<path d="M284.8 247.741C284.8 247.741 294.96 237.459 298.08 228.334C301.2 219.21 300.48 213.512 306.48 208.04C312.48 202.567 322.439 198.12 325.64 193.532C337.92 175.938 358.147 172.218 368.618 166.961" stroke="#FAE7C9" stroke-width="9" stroke-miterlimit="10"/>
<path d="M373.982 172.596C373.982 172.596 357.84 179.743 350.16 184.973C342.48 190.204 336.089 200.246 329.325 204.497C322.56 208.749 311.707 219.21 309.933 226.581C308.16 233.951 300.72 246.22 296.64 248.882C292.56 251.544 289.985 252.741 289.985 252.741" stroke="#FAE7C9" stroke-width="9" stroke-miterlimit="10"/>
<path d="M546.091 242.981C546.091 244.374 545.27 245.677 543.84 246.785C541.114 248.896 536.184 250.309 530.558 250.309C524.933 250.309 520.003 248.896 517.277 246.785C515.846 245.677 515.026 244.374 515.026 242.981C515.026 238.934 521.981 235.653 530.558 235.653C539.136 235.653 546.091 238.934 546.091 242.981Z" fill="#513235"/>
<path d="M543.84 246.785C541.114 248.896 536.184 250.309 530.558 250.309C524.933 250.309 520.003 248.896 517.277 246.785C520.003 244.674 524.933 243.261 530.558 243.261C536.184 243.261 541.114 244.674 543.84 246.785Z" fill="#FAE7C9"/>
<path d="M120.11 289.053C123.389 290.955 126.641 291.493 127.373 290.254C128.105 289.015 126.04 286.469 122.761 284.567C119.482 282.665 116.23 282.127 115.498 283.366C114.766 284.605 116.831 287.151 120.11 289.053Z" stroke="#372426" stroke-width="3" stroke-miterlimit="10"/>
<path d="M98.4672 348.183C91.7266 351.599 88.0186 356.454 80.7557 363.131C75.5717 367.897 68.9587 371.299 63.8827 370.027C61.8403 369.519 60.047 368.254 58.6954 366.016C53.9765 358.22 59.0323 347.105 61.392 342.096C63.7512 337.087 73.5461 328.142 80.7557 326.069C92.2152 322.773 105.539 325.334 109.122 332.112C109.165 332.199 109.21 332.286 109.253 332.376C112.623 339.352 105.208 344.767 98.4672 348.183Z" fill="#E66B43"/>
<path d="M98.4672 348.183C91.7266 351.599 88.0186 356.454 80.7557 363.131C75.5717 367.897 68.9587 371.299 63.8827 370.027C60.1248 362.307 64.8605 351.903 67.1218 347.105C69.4814 342.096 79.2758 333.151 86.4854 331.078C94.4227 328.794 103.254 329.322 109.122 332.113C109.165 332.2 109.21 332.287 109.253 332.377C112.623 339.352 105.208 344.767 98.4672 348.183Z" fill="#DBDABD"/>
<path d="M84.4618 359.611C84.4618 359.611 82.6258 348.594 98.4667 348.183" stroke="#372426" stroke-width="3" stroke-miterlimit="10"/>
<path d="M108.277 358.87C101.077 361.19 96.6437 365.406 88.4088 370.867C82.5317 374.763 75.4603 377.091 70.6502 375.043C68.7139 374.222 67.1443 372.694 66.1656 370.273C62.7456 361.838 69.5054 351.65 72.6322 347.073C75.7589 342.495 86.8531 335.19 94.3022 334.267C106.143 332.801 118.893 337.409 121.353 344.662C121.383 344.754 121.412 344.847 121.441 344.943C123.66 352.358 115.477 356.548 108.277 358.87Z" fill="#E66B43"/>
<path d="M108.277 358.87C101.077 361.191 96.6437 365.406 88.4088 370.867C82.5317 374.763 75.4603 377.091 70.6502 375.043C68.1667 366.833 74.4979 357.298 77.4941 352.912C80.6203 348.335 91.715 341.03 99.1642 340.107C107.366 339.091 116.003 340.989 121.353 344.662C121.383 344.755 121.412 344.847 121.441 344.943C123.66 352.358 115.477 356.548 108.277 358.87Z" fill="#DBDABD"/>
<path d="M92.6294 367.969C92.6294 367.969 92.5685 356.803 108.277 358.87" stroke="#372426" stroke-width="3" stroke-miterlimit="10"/>
<path d="M115.851 375.344C108.298 375.865 102.964 378.889 93.6389 382.208C86.9832 384.576 79.5528 385.134 75.3883 381.991C73.7107 380.73 72.5626 378.869 72.2059 376.285C70.9541 367.28 80.0074 359.022 84.1613 355.333C88.3152 351.644 100.868 347.223 108.32 348.119C120.166 349.542 131.406 357.078 132.017 364.705C132.023 364.802 132.028 364.899 132.033 364.999C132.37 372.724 123.405 374.823 115.851 375.344Z" fill="#E66B43"/>
<path d="M115.851 375.344C108.298 375.865 102.964 378.889 93.6389 382.208C86.9832 384.575 79.5528 385.134 75.3883 381.991C74.9899 373.429 83.4672 365.701 87.4478 362.167C91.6022 358.477 104.154 354.058 111.607 354.953C119.812 355.938 127.726 359.857 132.017 364.705C132.023 364.802 132.029 364.899 132.034 364.999C132.37 372.724 123.405 374.823 115.851 375.344Z" fill="#DBDABD"/>
<path d="M98.4427 380.411C98.4427 380.411 101.118 369.564 115.852 375.344" stroke="#372426" stroke-width="3" stroke-miterlimit="10"/>
<path d="M150.617 377.035C158.083 375.782 163.091 372.254 172.043 368.044C178.431 365.042 185.77 363.762 190.226 366.486C192.021 367.577 193.348 369.318 193.959 371.854C196.097 380.693 187.906 389.793 184.138 393.868C180.37 397.944 168.316 403.564 160.811 403.397C148.881 403.132 136.948 396.727 135.585 389.197C135.569 389.1 135.554 389.005 135.539 388.906C134.438 381.25 143.152 378.289 150.617 377.035Z" fill="#E66B43"/>
<path d="M150.617 377.035C158.083 375.782 163.091 372.254 172.043 368.044C178.431 365.042 185.77 363.762 190.226 366.486C191.472 374.967 183.801 383.483 180.19 387.387C176.422 391.463 164.368 397.082 156.863 396.916C148.599 396.733 140.336 393.604 135.584 389.197C135.569 389.1 135.553 389.005 135.539 388.906C134.438 381.25 143.152 378.289 150.617 377.035Z" fill="#DBDABD"/>
<path d="M167.44 370.3C167.44 370.3 165.853 381.354 150.617 377.035" stroke="#372426" stroke-width="3" stroke-miterlimit="10"/>
</svg>
